<svg xmlns="http://www.w3.org/2000/svg" width="48" height="48" viewBox="0 0 48 48"><g fill="none" fill-rule="evenodd"><path d="M48 0H0v48h48z"/><path fill="#000" fill-rule="nonzero" d="M30.141 14.797a3.5 3.5 0 1 0-5.282-4.594l-10 11.5a3.5 3.5 0 0 0 0 4.594l10 11.5a3.5 3.5 0 1 0 5.282-4.594L22.138 24l8.003-9.203z" opacity=".08"/><path fill="#000" fill-opacity=".12" fill-rule="nonzero" d="M29.387 14.14a2.5 2.5 0 0 0-3.774-3.28l-10 11.5a2.5 2.5 0 0 0 0 3.28l10 11.5a2.5 2.5 0 0 0 3.774-3.28L20.813 24l8.574-9.86z"/><path fill="#FFF" fill-rule="nonzero" d="M28.632 13.484a1.5 1.5 0 0 0-2.264-1.968l-10 11.5a1.5 1.5 0 0 0 0 1.968l10 11.5a1.5 1.5 0 0 0 2.264-1.968L19.488 24l9.144-10.516z"/></g></svg>