<svg xmlns="http://www.w3.org/2000/svg" width="48" height="48" viewBox="0 0 48 48"><g fill="none" fill-rule="evenodd"><path d="M0 0h48v48H0z"/><path fill="#000" fill-rule="nonzero" d="M17.859 14.797a3.5 3.5 0 1 1 5.282-4.594l10 11.5a3.5 3.5 0 0 1 0 4.594l-10 11.5a3.5 3.5 0 1 1-5.282-4.594L25.862 24l-8.003-9.203z" opacity=".08"/><path fill="#000" fill-opacity=".12" fill-rule="nonzero" d="M18.613 14.14a2.5 2.5 0 0 1 3.774-3.28l10 11.5a2.5 2.5 0 0 1 0 3.28l-10 11.5a2.5 2.5 0 0 1-3.774-3.28L27.187 24l-8.574-9.86z"/><path fill="#FFF" fill-rule="nonzero" d="M19.368 13.484a1.5 1.5 0 0 1 2.264-1.968l10 11.5a1.5 1.5 0 0 1 0 1.968l-10 11.5a1.5 1.5 0 0 1-2.264-1.968L28.512 24l-9.144-10.516z"/></g></svg>