<svg width="14" height="14" viewBox="0 0 14 14" xmlns="http://www.w3.org/2000/svg">
  <g transform="translate(-5 -5)" fill="none" fill-rule="evenodd">
    <rect width="24" height="24" rx="2"/>
    <path d="M18.598 14.343c.26-.733.402-1.52.402-2.343 0-3.866-3.134-7-7-7s-7 3.134-7 7c0 .822.142 1.61.402 2.343C5.156 14.76 5 15.303 5 16c0 2.5 2 3 3 3s1-1.343 1-3 0-3-1-3c-.246 0-.553.03-.876.113C7.044 12.755 7 12.383 7 12c0-2.76 2.24-5 5-5s5 2.24 5 5c0 .383-.043.755-.124 1.113-.323-.083-.63-.113-.876-.113-1 0-1 1.343-1 3s0 3 1 3 3-.5 3-3c0-.697-.156-1.24-.402-1.657z" fill="#828A99"/>
  </g>
</svg>